<svg width="118" height="52" viewBox="0 0 118 52" fill="none" xmlns="http://www.w3.org/2000/svg">
<path fill-rule="evenodd" clip-rule="evenodd" d="M111.1 32.0233C109.508 29.9282 107.488 27.9218 105.467 26C107.488 24.0782 109.508 22.0718 111.1 19.9767C113.035 17.4373 114.48 14.5882 114.48 11.375C114.48 5.66737 109.827 0.963224 104.706 0.130847C105.236 0.0446764 105.771 0 106.307 0C112.016 0 117.682 5.0765 117.682 11.375C117.682 14.5882 116.237 17.4373 114.302 19.9767C112.71 22.0718 110.69 24.0782 108.669 26C110.69 27.9218 112.71 29.9282 114.302 32.0233C116.235 34.5627 117.682 37.4118 117.682 40.625C117.682 46.9235 112.016 52 106.307 52C105.771 52 105.236 51.9553 104.706 51.8691C109.827 51.0368 114.48 46.3326 114.48 40.625C114.48 37.4118 113.033 34.5627 111.1 32.0233ZM104.706 22.2158C103.281 20.8102 101.973 19.4226 100.897 18.0093C99.1722 15.7387 98.182 13.5785 98.182 11.375C98.182 7.55884 101.267 4.25383 104.706 3.44099C104.177 3.31606 103.641 3.25 103.105 3.25C99.0859 3.25 94.9801 6.97233 94.9801 11.375C94.9801 13.5785 95.9703 15.7387 97.6949 18.0093C99.1639 19.9377 101.062 21.8183 103.105 23.7618C103.651 23.2427 104.186 22.728 104.706 22.2158ZM97.6949 33.9907C99.1618 32.0623 101.062 30.1817 103.105 28.2382C103.651 28.7573 104.186 29.272 104.706 29.7842C103.28 31.1898 101.972 32.5774 100.897 33.9907C99.1722 36.2613 98.182 38.4215 98.182 40.625C98.182 44.4412 101.267 47.7462 104.706 48.559C104.177 48.6839 103.641 48.75 103.105 48.75C99.0859 48.75 94.9801 45.0277 94.9801 40.625C94.9801 38.4215 95.9703 36.2613 97.6949 33.9907Z" fill="#001D86"/>
<path fill-rule="evenodd" clip-rule="evenodd" d="M101.79 0.0884343C96.5574 0.788564 91.73 5.5612 91.73 11.375C91.73 14.5882 93.1774 17.4373 95.11 19.9767C96.7025 22.0718 98.7219 24.0782 100.743 26C98.7219 27.9218 96.7025 29.9282 95.11 32.0233C93.1774 34.5627 91.73 37.4118 91.73 40.625C91.73 46.4388 96.5574 51.2114 101.79 51.9116C101.354 51.9699 100.915 52 100.476 52C94.7664 52 89.1006 46.9235 89.1006 40.625C89.1006 37.4118 90.5479 34.5627 92.4806 32.0233C94.0731 29.9282 96.0924 27.9218 98.1139 26C96.0924 24.0782 94.0731 22.0718 92.4806 19.9767C90.5479 17.4373 89.1006 14.5882 89.1006 11.375C89.1006 5.0765 94.7664 0 100.476 0C100.915 0 101.354 0.0300636 101.79 0.0884343ZM101.79 3.37928C105.343 4.07133 108.601 7.45325 108.601 11.375C108.601 13.5785 107.61 15.7387 105.886 18.0093C104.739 19.5166 103.328 20.9948 101.79 22.4966C102.22 22.9161 102.659 23.3375 103.105 23.7618C105.148 21.8183 107.048 19.9377 108.515 18.0093C110.24 15.7387 111.23 13.5785 111.23 11.375C111.23 6.97233 107.124 3.25 103.105 3.25C102.666 3.25 102.226 3.29441 101.79 3.37928ZM101.79 29.5034C102.22 29.0839 102.659 28.6625 103.105 28.2382C105.148 30.1817 107.046 32.0623 108.515 33.9907C110.24 36.2613 111.23 38.4215 111.23 40.625C111.23 45.0277 107.124 48.75 103.105 48.75C102.666 48.75 102.226 48.7056 101.79 48.6207C105.343 47.9287 108.601 44.5467 108.601 40.625C108.601 38.4215 107.61 36.2613 105.886 33.9907C104.737 32.4834 103.327 31.0052 101.79 29.5034Z" fill="#BEF9EB"/>
<path fill-rule="evenodd" clip-rule="evenodd" d="M102.521 0.0175929C97.0157 0.348005 91.7301 5.2915 91.7301 11.375C91.7301 14.5882 93.1774 17.4373 95.1101 19.9767C96.7026 22.0718 98.7219 24.0782 100.743 26C98.7219 27.9218 96.7026 29.9282 95.1101 32.0233C93.1774 34.5627 91.7301 37.4118 91.7301 40.625C91.7301 46.7085 97.0157 51.652 102.521 51.9824C102.326 51.9941 102.131 52 101.937 52C96.2274 52 90.5615 46.9235 90.5615 40.625C90.5615 37.4118 92.0089 34.5627 93.9415 32.0233C95.534 29.9282 97.5534 27.9218 99.5749 26C97.5534 24.0782 95.534 22.0718 93.9415 19.9767C92.0089 17.4373 90.5615 14.5882 90.5615 11.375C90.5615 5.0765 96.2274 0 101.937 0C102.131 0 102.326 0.00591542 102.521 0.0175929ZM102.521 3.27586C106.344 3.61227 110.062 7.18563 110.062 11.375C110.062 13.5785 109.071 15.7387 107.347 18.0093C106.021 19.7525 104.341 21.4567 102.521 23.2037C102.714 23.3892 102.909 23.5752 103.105 23.7618C105.148 21.8183 107.048 19.9377 108.515 18.0093C110.24 15.7387 111.23 13.5785 111.23 11.375C111.23 6.97233 107.124 3.25 103.105 3.25C102.91 3.25 102.715 3.25874 102.521 3.27586ZM102.521 48.7241C106.344 48.3877 110.062 44.8144 110.062 40.625C110.062 38.4215 109.071 36.2613 107.347 33.9907C106.019 32.2475 104.34 30.5433 102.521 28.7963C102.714 28.6108 102.909 28.4248 103.105 28.2382C105.148 30.1817 107.046 32.0623 108.515 33.9907C110.24 36.2613 111.23 38.4215 111.23 40.625C111.23 45.0277 107.124 48.75 103.105 48.75C102.91 48.75 102.715 48.7413 102.521 48.7241Z" fill="#D7AD1A"/>
<path d="M2.22035 37.7899C2.37615 38.1405 2.58065 38.5008 2.83383 38.8708C3.10649 39.2214 3.42784 39.5427 3.79788 39.8349C4.18739 40.127 4.63533 40.3704 5.1417 40.5652C5.64806 40.7405 6.21286 40.8281 6.83608 40.8281C7.47877 40.8281 8.05331 40.721 8.55967 40.5068C9.08552 40.2731 9.52372 39.9712 9.87428 39.6012C10.2443 39.2116 10.5267 38.7637 10.7215 38.2573C10.9162 37.7315 11.0136 37.1764 11.0136 36.5922C11.0136 35.6963 10.7799 34.9854 10.3125 34.4596C9.86454 33.9337 9.29975 33.4955 8.6181 33.145C7.93645 32.7944 7.19638 32.4731 6.39788 32.1809C5.61885 31.8888 4.88851 31.5285 4.20686 31.1C3.52522 30.6521 2.95068 30.0873 2.48327 29.4057C2.03533 28.724 1.81136 27.8087 1.81136 26.6596C1.81136 25.8416 1.95743 25.1015 2.24956 24.4394C2.5417 23.7577 2.96042 23.1734 3.50574 22.6866C4.07053 22.1997 4.74244 21.8199 5.52147 21.5472C6.3005 21.2746 7.1769 21.1382 8.15068 21.1382C9.08552 21.1382 9.89376 21.2551 10.5754 21.4888C11.2571 21.703 11.89 22.0439 12.4743 22.5113C12.299 22.8424 12.1529 23.1929 12.0361 23.563C11.9192 23.933 11.8024 24.4004 11.6855 24.9652H11.335C11.2376 24.6925 11.1012 24.4004 10.926 24.0888C10.7702 23.7577 10.5462 23.4558 10.2541 23.1832C9.9814 22.9105 9.65031 22.6866 9.2608 22.5113C8.87128 22.3165 8.40387 22.2191 7.85855 22.2191C7.31323 22.2191 6.80686 22.3068 6.33945 22.4821C5.89151 22.6573 5.49226 22.9105 5.1417 23.2416C4.81061 23.5532 4.54769 23.933 4.35293 24.3809C4.17765 24.8289 4.09001 25.3158 4.09001 25.8416C4.09001 26.757 4.31398 27.4776 4.76192 28.0034C5.22934 28.5292 5.80387 28.9772 6.48552 29.3472C7.16716 29.6978 7.8975 30.0191 8.67653 30.3113C9.47503 30.5839 10.2151 30.9248 10.8968 31.3337C11.5784 31.7427 12.1432 32.2686 12.5911 32.9113C13.0586 33.554 13.2923 34.4109 13.2923 35.4821C13.2923 36.3779 13.1267 37.2251 12.7956 38.0236C12.484 38.8221 12.0166 39.5233 11.3934 40.127C10.7896 40.7113 10.0398 41.169 9.14394 41.5C8.26754 41.8116 7.26454 41.9675 6.13495 41.9675C4.92746 41.9675 3.94394 41.8116 3.18439 41.5C2.44432 41.169 1.8211 40.7989 1.31473 40.3899C1.49001 39.942 1.60686 39.5427 1.66529 39.1922C1.74319 38.8221 1.81136 38.3547 1.86979 37.7899H2.22035ZM19.9529 34.6933C19.9529 35.5113 20.0211 36.3 20.1574 37.0596C20.3132 37.8191 20.5664 38.5008 20.917 39.1045C21.2675 39.6888 21.735 40.1562 22.3192 40.5068C22.9035 40.8573 23.6241 41.0326 24.481 41.0326C25.338 41.0326 26.0586 40.8573 26.6428 40.5068C27.2271 40.1562 27.6945 39.6888 28.0451 39.1045C28.3956 38.5008 28.6391 37.8191 28.7754 37.0596C28.9312 36.3 29.0091 35.5113 29.0091 34.6933C29.0091 33.8753 28.9312 33.0866 28.7754 32.327C28.6391 31.5675 28.3956 30.8955 28.0451 30.3113C27.6945 29.7075 27.2271 29.2304 26.6428 28.8798C26.0586 28.5292 25.338 28.354 24.481 28.354C23.6241 28.354 22.9035 28.5292 22.3192 28.8798C21.735 29.2304 21.2675 29.7075 20.917 30.3113C20.5664 30.8955 20.3132 31.5675 20.1574 32.327C20.0211 33.0866 19.9529 33.8753 19.9529 34.6933ZM17.3821 34.6933C17.3821 33.369 17.5866 32.2491 17.9956 31.3337C18.4241 30.3989 18.9792 29.6491 19.6608 29.0843C20.3424 28.5 21.102 28.0813 21.9395 27.8281C22.7964 27.5555 23.6436 27.4191 24.481 27.4191C25.338 27.4191 26.1851 27.5555 27.0226 27.8281C27.8601 28.0813 28.6196 28.5 29.3012 29.0843C29.9829 29.6491 30.5282 30.3989 30.9372 31.3337C31.3657 32.2491 31.5799 33.369 31.5799 34.6933C31.5799 36.0176 31.3657 37.1472 30.9372 38.0821C30.5282 38.9974 29.9829 39.7472 29.3012 40.3315C28.6196 40.8963 27.8601 41.2955 27.0226 41.5293C26.1851 41.763 25.338 41.8798 24.481 41.8798C23.6436 41.8798 22.7964 41.763 21.9395 41.5293C21.102 41.2955 20.3424 40.8963 19.6608 40.3315C18.9792 39.7472 18.4241 38.9974 17.9956 38.0821C17.5866 37.1472 17.3821 36.0176 17.3821 34.6933ZM37.3251 27.9742C37.3251 27.312 37.3154 26.5914 37.2959 25.8124C37.2959 25.0334 37.2862 24.2641 37.2667 23.5045C37.2472 22.745 37.218 22.0244 37.1791 21.3427C37.1596 20.6416 37.1304 20.0476 37.0914 19.5607C37.6368 19.6581 38.075 19.7068 38.406 19.7068C38.7371 19.7068 39.1753 19.6581 39.7206 19.5607C39.6817 20.0476 39.6427 20.6416 39.6038 21.3427C39.5843 22.0244 39.5648 22.745 39.5454 23.5045C39.5259 24.2641 39.5064 25.0334 39.4869 25.8124C39.4869 26.5914 39.4869 27.312 39.4869 27.9742V33.2618C39.4869 33.924 39.4869 34.6446 39.4869 35.4236C39.5064 36.2027 39.5259 36.9719 39.5454 37.7315C39.5648 38.491 39.5843 39.2116 39.6038 39.8933C39.6427 40.5749 39.6817 41.1397 39.7206 41.5877C39.2727 41.5487 38.8345 41.5293 38.406 41.5293C37.9776 41.5293 37.5394 41.5487 37.0914 41.5877C37.1304 41.1397 37.1596 40.5749 37.1791 39.8933C37.218 39.2116 37.2472 38.491 37.2667 37.7315C37.2862 36.9719 37.2959 36.2027 37.2959 35.4236C37.3154 34.6446 37.3251 33.924 37.3251 33.2618V27.9742ZM50.5098 41.5877C49.6139 39.2896 48.7083 36.9914 47.7929 34.6933C46.897 32.3952 45.9135 30.0678 44.8424 27.7113C45.0955 27.7502 45.339 27.7892 45.5727 27.8281C45.8064 27.8476 46.0499 27.8573 46.303 27.8573C46.5173 27.8573 46.7315 27.8476 46.9457 27.8281C47.16 27.7892 47.3742 27.7502 47.5884 27.7113C48.1922 29.6394 48.8446 31.5382 49.5457 33.4079C50.2663 35.2581 51.0648 37.157 51.9412 39.1045C52.3308 38.306 52.7105 37.4491 53.0806 36.5337C53.4701 35.5989 53.8499 34.6349 54.2199 33.6416C54.6094 32.6484 54.9794 31.6551 55.33 30.6618C55.7 29.6491 56.0603 28.6656 56.4109 27.7113C56.7615 27.8086 57.0633 27.8573 57.3165 27.8573C57.5697 27.8573 57.8716 27.8086 58.2221 27.7113C57.1705 30.0678 56.1382 32.3952 55.1255 34.6933C54.1128 36.9914 53.1877 39.2896 52.3502 41.5877C52.0581 41.5487 51.7562 41.5293 51.4446 41.5293C51.133 41.5293 50.8214 41.5487 50.5098 41.5877ZM68.0169 28.354C67.2963 28.354 66.6828 28.5195 66.1764 28.8506C65.6895 29.1817 65.2805 29.6004 64.9495 30.1068C64.6379 30.5937 64.3944 31.139 64.2191 31.7427C64.0633 32.327 63.9659 32.8821 63.927 33.4079C64.5307 33.4274 65.154 33.4469 65.7967 33.4663C66.4588 33.4858 67.1015 33.4955 67.7247 33.4955C68.3674 33.4955 69.0199 33.4858 69.682 33.4663C70.3442 33.4469 70.9869 33.4274 71.6101 33.4079C71.6101 32.8821 71.5614 32.327 71.4641 31.7427C71.3862 31.1585 71.2109 30.6131 70.9382 30.1068C70.685 29.6004 70.3247 29.1817 69.8573 28.8506C69.3899 28.5195 68.7764 28.354 68.0169 28.354ZM61.2686 35.1023C61.2686 32.7068 61.8334 30.8274 62.9629 29.4641C64.112 28.1008 65.7772 27.4191 67.9585 27.4191C68.9907 27.4191 69.8768 27.5847 70.6169 27.9158C71.3764 28.2274 72.0094 28.6558 72.5158 29.2012C73.0221 29.727 73.3922 30.3502 73.6259 31.0708C73.8791 31.7914 74.0056 32.5607 74.0056 33.3787C74.0056 33.5734 73.9959 33.7682 73.9764 33.963C73.9764 34.1382 73.9667 34.3233 73.9472 34.518C72.8955 34.4985 71.8536 34.4791 70.8214 34.4596C69.7892 34.4401 68.7472 34.4304 67.6955 34.4304C67.0528 34.4304 66.4101 34.4401 65.7674 34.4596C65.1442 34.4791 64.5113 34.4985 63.8686 34.518C63.8491 34.6154 63.8393 34.7615 63.8393 34.9562V35.336C63.8393 36.0955 63.9465 36.8064 64.1607 37.4686C64.3944 38.1307 64.7255 38.7053 65.154 39.1922C65.5824 39.6596 66.1083 40.0394 66.7315 40.3315C67.3547 40.6042 68.0753 40.7405 68.8933 40.7405C69.2828 40.7405 69.682 40.6918 70.091 40.5944C70.5 40.4776 70.8993 40.3315 71.2888 40.1562C71.6783 39.9615 72.0386 39.7375 72.3697 39.4843C72.7202 39.2311 73.0221 38.9585 73.2753 38.6663L73.4214 38.754L73.2461 40.1854C72.6618 40.6528 71.9315 41.0521 71.0551 41.3832C70.1982 41.7143 69.3023 41.8798 68.3674 41.8798C67.3158 41.8798 66.3517 41.724 65.4753 41.4124C64.6184 41.0813 63.8686 40.6139 63.2259 40.0101C62.6026 39.3869 62.1158 38.6566 61.7652 37.8191C61.4341 36.9817 61.2686 36.0761 61.2686 35.1023Z" fill="#001D86"/>
<path d="M79.4686 29.0843C79.4686 27.7989 79.4393 26.5427 79.3809 25.3158C79.342 24.0693 79.2933 22.8034 79.2349 21.518C79.488 21.557 79.7315 21.5959 79.9652 21.6349C80.1989 21.6543 80.4326 21.6641 80.6663 21.6641C80.9 21.6641 81.1337 21.6543 81.3674 21.6349C81.6011 21.5959 81.8446 21.557 82.0978 21.518C82.0393 22.8034 81.9809 24.0693 81.9225 25.3158C81.8835 26.5427 81.8641 27.7989 81.8641 29.0843V34.109C81.8641 35.3944 81.8835 36.6603 81.9225 37.9068C81.9809 39.1532 82.0393 40.3802 82.0978 41.5877C81.6498 41.5487 81.1727 41.5293 80.6663 41.5293C80.1599 41.5293 79.6828 41.5487 79.2349 41.5877C79.2933 40.3802 79.342 39.1532 79.3809 37.9068C79.4393 36.6603 79.4686 35.3944 79.4686 34.109V29.0843Z" fill="#D7AD1A"/>
<circle cx="80.6294" cy="16.0692" r="3.50562" fill="#D7AD1A"/>
</svg>
